<svg xmlns="http://www.w3.org/2000/svg" viewBox="0 0 199.65 40" aria-labelledby="title desc"><title>Hardwood</title><desc>Hardwood is a high-performance parser for Apache Parquet. Learn more at hardwood.dev.</desc><g transform="translate(-7.227 -7.007) scale(2.1966)"><path fill="#b9661f" d="m10.501 16.875 1.288 2.109.687-1.507z"/><path fill="#8e4911" d="m13.536 10.969 1.71 1.406-1.496 2.808-3.249 2.092z"/><path fill="#402714" d="m13.719 10.813-3.078 6.232-1.065 1.752-3.152 2.102 2.291-5.742z"/><path fill="#a14f14" d="m7.551 4.89 5.113-1.192-.777 1.865z"/><path fill="#633613" d="m7.551 4.894 6.019 6.127.664-2.725z"/><path fill="#b45c19" d="m14.784 5.018-2.12-1.32-.81 1.761z"/><path fill="#633613" d="m11.854 5.463-1.526 2.088-2.777-2.657z"/><path fill="#46484d" d="m18.409 6.278-3.739-.056.114-1.204z"/><path fill="#222529" d="m14.67 6.222-.139 1.134 3.878-1.078z"/><path fill="#8e4911" d="m11.854 5.459 2.38 2.852-4.008-.694z"/><path fill="#f7debe" d="m11.78 5.474 2.434 2.837.323-.937.247-2.356z"/><circle fill="#222529" cx="13.804" cy="5.912" r=".423"/><path fill="#763f12" d="m14.217 8.276 1.029 4.099-1.728-1.408z"/><path fill="#d37f31" d="m10.239 7.619 3.331 3.402-4.791-1.099z"/><path fill="#e79b53" d="m8.779 9.922 4.78 1.087L9.576 14.5z"/><path fill="#d37f31" d="m8.779 9.922-2.396 7.482L9.576 14.5z"/><path fill="#c77328" d="m10.773 17.075 1.709.407 1.322-2.4z"/><path fill="#402714" d="m12.469 17.482 2.229 1.497-2.909.005z"/><circle fill="#1e90ff" cx="15.652" cy="5.699" r=".135"/></g><g transform="translate(54 29) scale(0.01465 -0.01465)" fill="#ffffff"><path transform="translate(0 0)" d="M124 0H388V646H1075V0H1340V1490H1075V875H388V1490H124Z"/><path transform="translate(1464 0)" d="M434 -17C606 -17 695 55 745 149H749V0H997V720C997 940 834 1077 559 1077C283 1077 111 938 99 728H342C349 817 431 881 554 881C675 881 747 817 747 727V719C747 647 680 644 484 622C266 599 69 540 69 300C69 89 224 -17 434 -17ZM496 170C386 170 315 219 315 302C315 398 407 437 515 453C619 469 717 485 748 505V391C748 268 661 170 496 170Z"/><path transform="translate(2572 0)" d="M112 0H364V598C364 763 457 846 577 846C627 846 677 841 696 838V1062C676 1064 648 1066 614 1066C478 1066 397 1002 358 881H355V1056H112Z"/><path transform="translate(3301 0)" d="M520 -21C658 -21 774 39 840 161H842V0H1090V1490H838V906H836C768 1022 655 1077 518 1077C247 1077 63 854 63 529C63 200 244 -21 520 -21ZM579 190C423 190 318 310 318 529C318 747 423 868 579 868C744 868 852 734 852 529C852 323 744 190 579 190Z"/><path transform="translate(4503 0)" d="M344 0H604L734 440C763 538 789 641 815 744C842 641 868 538 896 440L1024 0H1286L1613 1056H1345L1236 655C1203 530 1172 396 1142 265C1109 396 1077 530 1043 655L932 1056H699L587 655C552 529 520 394 487 263C455 394 425 529 392 655L283 1056H18Z"/><path transform="translate(6134 0)" d="M584 -24C895 -24 1105 199 1105 527C1105 855 895 1080 584 1080C273 1080 63 855 63 527C63 199 273 -24 584 -24ZM584 187C421 187 318 316 318 527C318 739 422 869 584 869C745 869 849 738 849 527C849 317 746 187 584 187Z"/><path transform="translate(7301 0)" d="M584 -24C895 -24 1105 199 1105 527C1105 855 895 1080 584 1080C273 1080 63 855 63 527C63 199 273 -24 584 -24ZM584 187C421 187 318 316 318 527C318 739 422 869 584 869C745 869 849 738 849 527C849 317 746 187 584 187Z"/><path transform="translate(8468 0)" d="M520 -21C658 -21 774 39 840 161H842V0H1090V1490H838V906H836C768 1022 655 1077 518 1077C247 1077 63 854 63 529C63 200 244 -21 520 -21ZM579 190C423 190 318 310 318 529C318 747 423 868 579 868C744 868 852 734 852 529C852 323 744 190 579 190Z"/></g></svg>